<?xml version="1.0" encoding="UTF-8" standalone="no"?>
<!DOCTYPE svg PUBLIC "-//W3C//DTD SVG 1.1//EN"
 "http://www.w3.org/Graphics/SVG/1.1/DTD/svg11.dtd">
<!-- Generated by graphviz version 2.43.0 (0)
 -->
<!-- Title: %3 Pages: 1 -->
<svg width="2180pt" height="476pt"
 viewBox="0.00 0.00 2179.86 476.00" xmlns="http://www.w3.org/2000/svg" xmlns:xlink="http://www.w3.org/1999/xlink">
<g id="graph0" class="graph" transform="scale(1 1) rotate(0) translate(4 472)">
<title>%3</title>
<polygon fill="white" stroke="transparent" points="-4,4 -4,-472 2175.86,-472 2175.86,4 -4,4"/>
<!-- [root] data.archive_file.src (expand) -->
<g id="node1" class="node">
<title>[root] data.archive_file.src (expand)</title>
<polygon fill="none" stroke="black" points="1903.5,-180 1743.5,-180 1743.5,-144 1903.5,-144 1903.5,-180"/>
<text text-anchor="middle" x="1823.5" y="-158.3" font-family="Times,serif" font-size="14.00">data.archive_file.src</text>
</g>
<!-- [root] provider[&quot;registry.terraform.io/hashicorp/archive&quot;] -->
<g id="node12" class="node">
<title>[root] provider[&quot;registry.terraform.io/hashicorp/archive&quot;]</title>
<polygon fill="none" stroke="black" points="1823.5,-108 1475.28,-90 1823.5,-72 2171.72,-90 1823.5,-108"/>
<text text-anchor="middle" x="1823.5" y="-86.3" font-family="Times,serif" font-size="14.00">provider[&quot;registry.terraform.io/hashicorp/archive&quot;]</text>
</g>
<!-- [root] data.archive_file.src (expand)&#45;&gt;[root] provider[&quot;registry.terraform.io/hashicorp/archive&quot;] -->
<g id="edge1" class="edge">
<title>[root] data.archive_file.src (expand)&#45;&gt;[root] provider[&quot;registry.terraform.io/hashicorp/archive&quot;]</title>
<path fill="none" stroke="black" d="M1823.5,-143.7C1823.5,-135.98 1823.5,-126.71 1823.5,-118.11"/>
<polygon fill="black" stroke="black" points="1827,-118.1 1823.5,-108.1 1820,-118.1 1827,-118.1"/>
</g>
<!-- [root] data.google_storage_project_service_account.gcs_account (expand) -->
<g id="node2" class="node">
<title>[root] data.google_storage_project_service_account.gcs_account (expand)</title>
<polygon fill="none" stroke="black" points="969.5,-180 541.5,-180 541.5,-144 969.5,-144 969.5,-180"/>
<text text-anchor="middle" x="755.5" y="-158.3" font-family="Times,serif" font-size="14.00">data.google_storage_project_service_account.gcs_account</text>
</g>
<!-- [root] provider[&quot;registry.terraform.io/hashicorp/google&quot;] -->
<g id="node13" class="node">
<title>[root] provider[&quot;registry.terraform.io/hashicorp/google&quot;]</title>
<polygon fill="none" stroke="black" points="1089.5,-108 745.97,-90 1089.5,-72 1433.03,-90 1089.5,-108"/>
<text text-anchor="middle" x="1089.5" y="-86.3" font-family="Times,serif" font-size="14.00">provider[&quot;registry.terraform.io/hashicorp/google&quot;]</text>
</g>
<!-- [root] data.google_storage_project_service_account.gcs_account (expand)&#45;&gt;[root] provider[&quot;registry.terraform.io/hashicorp/google&quot;] -->
<g id="edge2" class="edge">
<title>[root] data.google_storage_project_service_account.gcs_account (expand)&#45;&gt;[root] provider[&quot;registry.terraform.io/hashicorp/google&quot;]</title>
<path fill="none" stroke="black" d="M836.78,-143.97C890.93,-132.62 961.57,-117.81 1014.4,-106.74"/>
<polygon fill="black" stroke="black" points="1015.31,-110.12 1024.38,-104.65 1013.88,-103.27 1015.31,-110.12"/>
</g>
<!-- [root] google_cloudfunctions_function.function (expand) -->
<g id="node3" class="node">
<title>[root] google_cloudfunctions_function.function (expand)</title>
<polygon fill="none" stroke="black" points="1390,-324 1087,-324 1087,-288 1390,-288 1390,-324"/>
<text text-anchor="middle" x="1238.5" y="-302.3" font-family="Times,serif" font-size="14.00">google_cloudfunctions_function.function</text>
</g>
<!-- [root] google_pubsub_topic.topic (expand) -->
<g id="node5" class="node">
<title>[root] google_pubsub_topic.topic (expand)</title>
<polygon fill="none" stroke="black" points="1192,-180 987,-180 987,-144 1192,-144 1192,-180"/>
<text text-anchor="middle" x="1089.5" y="-158.3" font-family="Times,serif" font-size="14.00">google_pubsub_topic.topic</text>
</g>
<!-- [root] google_cloudfunctions_function.function (expand)&#45;&gt;[root] google_pubsub_topic.topic (expand) -->
<g id="edge3" class="edge">
<title>[root] google_cloudfunctions_function.function (expand)&#45;&gt;[root] google_pubsub_topic.topic (expand)</title>
<path fill="none" stroke="black" d="M1162.49,-288C1142.38,-280.11 1122.42,-268.63 1108.5,-252 1094.19,-234.91 1089.88,-209.62 1088.9,-190.36"/>
<polygon fill="black" stroke="black" points="1092.39,-190.02 1088.65,-180.1 1085.39,-190.19 1092.39,-190.02"/>
</g>
<!-- [root] google_storage_bucket_object.archive (expand) -->
<g id="node9" class="node">
<title>[root] google_storage_bucket_object.archive (expand)</title>
<polygon fill="none" stroke="black" points="1405,-252 1118,-252 1118,-216 1405,-216 1405,-252"/>
<text text-anchor="middle" x="1261.5" y="-230.3" font-family="Times,serif" font-size="14.00">google_storage_bucket_object.archive</text>
</g>
<!-- [root] google_cloudfunctions_function.function (expand)&#45;&gt;[root] google_storage_bucket_object.archive (expand) -->
<g id="edge4" class="edge">
<title>[root] google_cloudfunctions_function.function (expand)&#45;&gt;[root] google_storage_bucket_object.archive (expand)</title>
<path fill="none" stroke="black" d="M1244.19,-287.7C1246.75,-279.9 1249.83,-270.51 1252.68,-261.83"/>
<polygon fill="black" stroke="black" points="1256.08,-262.7 1255.88,-252.1 1249.43,-260.51 1256.08,-262.7"/>
</g>
<!-- [root] google_pubsub_subscription.subscription (expand) -->
<g id="node4" class="node">
<title>[root] google_pubsub_subscription.subscription (expand)</title>
<polygon fill="none" stroke="black" points="1069,-324 758,-324 758,-288 1069,-288 1069,-324"/>
<text text-anchor="middle" x="913.5" y="-302.3" font-family="Times,serif" font-size="14.00">google_pubsub_subscription.subscription</text>
</g>
<!-- [root] google_pubsub_subscription.subscription (expand)&#45;&gt;[root] google_pubsub_topic.topic (expand) -->
<g id="edge5" class="edge">
<title>[root] google_pubsub_subscription.subscription (expand)&#45;&gt;[root] google_pubsub_topic.topic (expand)</title>
<path fill="none" stroke="black" d="M934.73,-287.87C966.05,-262.6 1024.73,-215.25 1060.15,-186.68"/>
<polygon fill="black" stroke="black" points="1062.61,-189.19 1068.19,-180.19 1058.21,-183.74 1062.61,-189.19"/>
</g>
<!-- [root] google_pubsub_topic.topic (expand)&#45;&gt;[root] provider[&quot;registry.terraform.io/hashicorp/google&quot;] -->
<g id="edge6" class="edge">
<title>[root] google_pubsub_topic.topic (expand)&#45;&gt;[root] provider[&quot;registry.terraform.io/hashicorp/google&quot;]</title>
<path fill="none" stroke="black" d="M1089.5,-143.7C1089.5,-135.98 1089.5,-126.71 1089.5,-118.11"/>
<polygon fill="black" stroke="black" points="1093,-118.1 1089.5,-108.1 1086,-118.1 1093,-118.1"/>
</g>
<!-- [root] google_pubsub_topic_iam_binding.binding (expand) -->
<g id="node6" class="node">
<title>[root] google_pubsub_topic_iam_binding.binding (expand)</title>
<polygon fill="none" stroke="black" points="933,-252 616,-252 616,-216 933,-216 933,-252"/>
<text text-anchor="middle" x="774.5" y="-230.3" font-family="Times,serif" font-size="14.00">google_pubsub_topic_iam_binding.binding</text>
</g>
<!-- [root] google_pubsub_topic_iam_binding.binding (expand)&#45;&gt;[root] data.google_storage_project_service_account.gcs_account (expand) -->
<g id="edge7" class="edge">
<title>[root] google_pubsub_topic_iam_binding.binding (expand)&#45;&gt;[root] data.google_storage_project_service_account.gcs_account (expand)</title>
<path fill="none" stroke="black" d="M769.8,-215.7C767.69,-207.9 765.14,-198.51 762.78,-189.83"/>
<polygon fill="black" stroke="black" points="766.14,-188.84 760.14,-180.1 759.38,-190.67 766.14,-188.84"/>
</g>
<!-- [root] google_pubsub_topic_iam_binding.binding (expand)&#45;&gt;[root] google_pubsub_topic.topic (expand) -->
<g id="edge8" class="edge">
<title>[root] google_pubsub_topic_iam_binding.binding (expand)&#45;&gt;[root] google_pubsub_topic.topic (expand)</title>
<path fill="none" stroke="black" d="M851.15,-215.97C896.97,-205.78 955.32,-192.82 1002.81,-182.26"/>
<polygon fill="black" stroke="black" points="1003.77,-185.64 1012.77,-180.05 1002.25,-178.8 1003.77,-185.64"/>
</g>
<!-- [root] google_storage_bucket.bucket_input (expand) -->
<g id="node7" class="node">
<title>[root] google_storage_bucket.bucket_input (expand)</title>
<polygon fill="none" stroke="black" points="597.5,-252 321.5,-252 321.5,-216 597.5,-216 597.5,-252"/>
<text text-anchor="middle" x="459.5" y="-230.3" font-family="Times,serif" font-size="14.00">google_storage_bucket.bucket_input</text>
</g>
<!-- [root] google_storage_bucket.bucket_input (expand)&#45;&gt;[root] provider[&quot;registry.terraform.io/hashicorp/google&quot;] -->
<g id="edge9" class="edge">
<title>[root] google_storage_bucket.bucket_input (expand)&#45;&gt;[root] provider[&quot;registry.terraform.io/hashicorp/google&quot;]</title>
<path fill="none" stroke="black" d="M468.12,-215.76C479.64,-194.78 502.16,-160.16 532.5,-144 585.87,-115.58 719.07,-102.26 841.83,-96.09"/>
<polygon fill="black" stroke="black" points="842.34,-99.57 852.15,-95.58 842,-92.57 842.34,-99.57"/>
</g>
<!-- [root] google_storage_bucket.bucket_output (expand) -->
<g id="node8" class="node">
<title>[root] google_storage_bucket.bucket_output (expand)</title>
<polygon fill="none" stroke="black" points="1694.5,-324 1408.5,-324 1408.5,-288 1694.5,-288 1694.5,-324"/>
<text text-anchor="middle" x="1551.5" y="-302.3" font-family="Times,serif" font-size="14.00">google_storage_bucket.bucket_output</text>
</g>
<!-- [root] google_storage_bucket.bucket_output (expand)&#45;&gt;[root] provider[&quot;registry.terraform.io/hashicorp/google&quot;] -->
<g id="edge10" class="edge">
<title>[root] google_storage_bucket.bucket_output (expand)&#45;&gt;[root] provider[&quot;registry.terraform.io/hashicorp/google&quot;]</title>
<path fill="none" stroke="black" d="M1527.94,-287.74C1501.13,-268.6 1455.61,-237.59 1413.5,-216 1335.73,-176.12 1312.08,-175.38 1230.5,-144 1200.28,-132.38 1166.32,-119.6 1139.3,-109.51"/>
<polygon fill="black" stroke="black" points="1140.27,-106.13 1129.67,-105.92 1137.82,-112.69 1140.27,-106.13"/>
</g>
<!-- [root] google_storage_bucket_object.archive (expand)&#45;&gt;[root] data.archive_file.src (expand) -->
<g id="edge11" class="edge">
<title>[root] google_storage_bucket_object.archive (expand)&#45;&gt;[root] data.archive_file.src (expand)</title>
<path fill="none" stroke="black" d="M1398.26,-215.97C1502.39,-203 1642.77,-185.51 1733.23,-174.24"/>
<polygon fill="black" stroke="black" points="1733.69,-177.71 1743.18,-173 1732.83,-170.77 1733.69,-177.71"/>
</g>
<!-- [root] google_storage_bucket_object.archive (expand)&#45;&gt;[root] provider[&quot;registry.terraform.io/hashicorp/google&quot;] -->
<g id="edge12" class="edge">
<title>[root] google_storage_bucket_object.archive (expand)&#45;&gt;[root] provider[&quot;registry.terraform.io/hashicorp/google&quot;]</title>
<path fill="none" stroke="black" d="M1253.31,-215.93C1243.21,-196.39 1224.41,-164.46 1200.5,-144 1183.7,-129.62 1162.32,-118.21 1142.83,-109.71"/>
<polygon fill="black" stroke="black" points="1144.01,-106.41 1133.44,-105.77 1141.31,-112.86 1144.01,-106.41"/>
</g>
<!-- [root] google_storage_default_object_access_control.public_rule (expand) -->
<g id="node10" class="node">
<title>[root] google_storage_default_object_access_control.public_rule (expand)</title>
<polygon fill="none" stroke="black" points="425,-324 0,-324 0,-288 425,-288 425,-324"/>
<text text-anchor="middle" x="212.5" y="-302.3" font-family="Times,serif" font-size="14.00">google_storage_default_object_access_control.public_rule</text>
</g>
<!-- [root] google_storage_default_object_access_control.public_rule (expand)&#45;&gt;[root] google_storage_bucket.bucket_input (expand) -->
<g id="edge13" class="edge">
<title>[root] google_storage_default_object_access_control.public_rule (expand)&#45;&gt;[root] google_storage_bucket.bucket_input (expand)</title>
<path fill="none" stroke="black" d="M272.61,-287.97C307.87,-277.97 352.59,-265.3 389.44,-254.85"/>
<polygon fill="black" stroke="black" points="390.46,-258.2 399.12,-252.11 388.55,-251.47 390.46,-258.2"/>
</g>
<!-- [root] google_storage_notification.notification (expand) -->
<g id="node11" class="node">
<title>[root] google_storage_notification.notification (expand)</title>
<polygon fill="none" stroke="black" points="739.5,-324 443.5,-324 443.5,-288 739.5,-288 739.5,-324"/>
<text text-anchor="middle" x="591.5" y="-302.3" font-family="Times,serif" font-size="14.00">google_storage_notification.notification</text>
</g>
<!-- [root] google_storage_notification.notification (expand)&#45;&gt;[root] google_pubsub_topic_iam_binding.binding (expand) -->
<g id="edge14" class="edge">
<title>[root] google_storage_notification.notification (expand)&#45;&gt;[root] google_pubsub_topic_iam_binding.binding (expand)</title>
<path fill="none" stroke="black" d="M636.27,-287.88C661.62,-278.18 693.51,-265.98 720.27,-255.74"/>
<polygon fill="black" stroke="black" points="721.79,-258.91 729.88,-252.07 719.29,-252.37 721.79,-258.91"/>
</g>
<!-- [root] google_storage_notification.notification (expand)&#45;&gt;[root] google_storage_bucket.bucket_input (expand) -->
<g id="edge15" class="edge">
<title>[root] google_storage_notification.notification (expand)&#45;&gt;[root] google_storage_bucket.bucket_input (expand)</title>
<path fill="none" stroke="black" d="M559.21,-287.88C541.63,-278.55 519.69,-266.92 500.87,-256.94"/>
<polygon fill="black" stroke="black" points="502.39,-253.78 491.91,-252.19 499.11,-259.97 502.39,-253.78"/>
</g>
<!-- [root] var.CREDENTIALS -->
<g id="node15" class="node">
<title>[root] var.CREDENTIALS</title>
<polygon fill="none" stroke="black" points="1072,-36 927,-36 927,0 1078,0 1078,-30 1072,-36"/>
<polyline fill="none" stroke="black" points="1072,-36 1072,-30 "/>
<polyline fill="none" stroke="black" points="1078,-30 1072,-30 "/>
<text text-anchor="middle" x="1002.5" y="-14.3" font-family="Times,serif" font-size="14.00">var.CREDENTIALS</text>
</g>
<!-- [root] provider[&quot;registry.terraform.io/hashicorp/google&quot;]&#45;&gt;[root] var.CREDENTIALS -->
<g id="edge28" class="edge">
<title>[root] provider[&quot;registry.terraform.io/hashicorp/google&quot;]&#45;&gt;[root] var.CREDENTIALS</title>
<path fill="none" stroke="black" d="M1069.32,-72.76C1058.12,-63.75 1043.99,-52.39 1031.62,-42.43"/>
<polygon fill="black" stroke="black" points="1033.77,-39.67 1023.78,-36.12 1029.38,-45.12 1033.77,-39.67"/>
</g>
<!-- [root] var.PROJECT_NAME -->
<g id="node16" class="node">
<title>[root] var.PROJECT_NAME</title>
<polygon fill="none" stroke="black" points="1253,-36 1096,-36 1096,0 1259,0 1259,-30 1253,-36"/>
<polyline fill="none" stroke="black" points="1253,-36 1253,-30 "/>
<polyline fill="none" stroke="black" points="1259,-30 1253,-30 "/>
<text text-anchor="middle" x="1177.5" y="-14.3" font-family="Times,serif" font-size="14.00">var.PROJECT_NAME</text>
</g>
<!-- [root] provider[&quot;registry.terraform.io/hashicorp/google&quot;]&#45;&gt;[root] var.PROJECT_NAME -->
<g id="edge29" class="edge">
<title>[root] provider[&quot;registry.terraform.io/hashicorp/google&quot;]&#45;&gt;[root] var.PROJECT_NAME</title>
<path fill="none" stroke="black" d="M1109.91,-72.76C1121.24,-63.75 1135.53,-52.39 1148.05,-42.43"/>
<polygon fill="black" stroke="black" points="1150.33,-45.09 1155.97,-36.12 1145.97,-39.61 1150.33,-45.09"/>
</g>
<!-- [root] var.BUCKET_ID -->
<g id="node14" class="node">
<title>[root] var.BUCKET_ID</title>
<polygon fill="none" stroke="black" points="1836,-324 1713,-324 1713,-288 1842,-288 1842,-318 1836,-324"/>
<polyline fill="none" stroke="black" points="1836,-324 1836,-318 "/>
<polyline fill="none" stroke="black" points="1842,-318 1836,-318 "/>
<text text-anchor="middle" x="1777.5" y="-302.3" font-family="Times,serif" font-size="14.00">var.BUCKET_ID</text>
</g>
<!-- [root] meta.count&#45;boundary (EachMode fixup) -->
<g id="node17" class="node">
<title>[root] meta.count&#45;boundary (EachMode fixup)</title>
<ellipse fill="none" stroke="black" cx="1259.5" cy="-378" rx="222.86" ry="18"/>
<text text-anchor="middle" x="1259.5" y="-374.3" font-family="Times,serif" font-size="14.00">[root] meta.count&#45;boundary (EachMode fixup)</text>
</g>
<!-- [root] meta.count&#45;boundary (EachMode fixup)&#45;&gt;[root] google_cloudfunctions_function.function (expand) -->
<g id="edge16" class="edge">
<title>[root] meta.count&#45;boundary (EachMode fixup)&#45;&gt;[root] google_cloudfunctions_function.function (expand)</title>
<path fill="none" stroke="black" d="M1254.31,-359.7C1251.97,-351.9 1249.15,-342.51 1246.55,-333.83"/>
<polygon fill="black" stroke="black" points="1249.86,-332.68 1243.63,-324.1 1243.15,-334.69 1249.86,-332.68"/>
</g>
<!-- [root] meta.count&#45;boundary (EachMode fixup)&#45;&gt;[root] google_pubsub_subscription.subscription (expand) -->
<g id="edge17" class="edge">
<title>[root] meta.count&#45;boundary (EachMode fixup)&#45;&gt;[root] google_pubsub_subscription.subscription (expand)</title>
<path fill="none" stroke="black" d="M1180.99,-361.12C1129.56,-350.71 1062.06,-337.05 1007.73,-326.06"/>
<polygon fill="black" stroke="black" points="1008.24,-322.6 997.75,-324.04 1006.85,-329.46 1008.24,-322.6"/>
</g>
<!-- [root] meta.count&#45;boundary (EachMode fixup)&#45;&gt;[root] google_storage_bucket.bucket_output (expand) -->
<g id="edge18" class="edge">
<title>[root] meta.count&#45;boundary (EachMode fixup)&#45;&gt;[root] google_storage_bucket.bucket_output (expand)</title>
<path fill="none" stroke="black" d="M1327.22,-360.76C1370.07,-350.49 1425.7,-337.16 1470.83,-326.34"/>
<polygon fill="black" stroke="black" points="1471.67,-329.74 1480.58,-324 1470.04,-322.93 1471.67,-329.74"/>
</g>
<!-- [root] meta.count&#45;boundary (EachMode fixup)&#45;&gt;[root] google_storage_default_object_access_control.public_rule (expand) -->
<g id="edge19" class="edge">
<title>[root] meta.count&#45;boundary (EachMode fixup)&#45;&gt;[root] google_storage_default_object_access_control.public_rule (expand)</title>
<path fill="none" stroke="black" d="M1102.28,-365.21C1077.27,-363.41 1051.68,-361.62 1027.5,-360 767.39,-342.58 699.63,-342.09 435.47,-324.06"/>
<polygon fill="black" stroke="black" points="435.39,-320.55 425.18,-323.36 434.91,-327.53 435.39,-320.55"/>
</g>
<!-- [root] meta.count&#45;boundary (EachMode fixup)&#45;&gt;[root] google_storage_notification.notification (expand) -->
<g id="edge20" class="edge">
<title>[root] meta.count&#45;boundary (EachMode fixup)&#45;&gt;[root] google_storage_notification.notification (expand)</title>
<path fill="none" stroke="black" d="M1127.4,-363.46C1026.74,-353.11 884.37,-338.38 749.91,-324.15"/>
<polygon fill="black" stroke="black" points="750.14,-320.65 739.83,-323.08 749.41,-327.61 750.14,-320.65"/>
</g>
<!-- [root] meta.count&#45;boundary (EachMode fixup)&#45;&gt;[root] var.BUCKET_ID -->
<g id="edge21" class="edge">
<title>[root] meta.count&#45;boundary (EachMode fixup)&#45;&gt;[root] var.BUCKET_ID</title>
<path fill="none" stroke="black" d="M1400.54,-364.06C1485.44,-355.33 1595.82,-342.35 1702.62,-324.05"/>
<polygon fill="black" stroke="black" points="1703.35,-327.48 1712.61,-322.32 1702.16,-320.58 1703.35,-327.48"/>
</g>
<!-- [root] provider[&quot;registry.terraform.io/hashicorp/archive&quot;] (close) -->
<g id="node18" class="node">
<title>[root] provider[&quot;registry.terraform.io/hashicorp/archive&quot;] (close)</title>
<ellipse fill="none" stroke="black" cx="1849.5" cy="-378" rx="308.15" ry="18"/>
<text text-anchor="middle" x="1849.5" y="-374.3" font-family="Times,serif" font-size="14.00">[root] provider[&quot;registry.terraform.io/hashicorp/archive&quot;] (close)</text>
</g>
<!-- [root] provider[&quot;registry.terraform.io/hashicorp/archive&quot;] (close)&#45;&gt;[root] data.archive_file.src (expand) -->
<g id="edge22" class="edge">
<title>[root] provider[&quot;registry.terraform.io/hashicorp/archive&quot;] (close)&#45;&gt;[root] data.archive_file.src (expand)</title>
<path fill="none" stroke="black" d="M1849.91,-359.82C1850.13,-349.44 1850.39,-335.96 1850.5,-324 1850.65,-308 1852.2,-303.91 1850.5,-288 1846.85,-253.81 1837.73,-215.24 1831.1,-190.1"/>
<polygon fill="black" stroke="black" points="1834.42,-188.95 1828.43,-180.2 1827.66,-190.77 1834.42,-188.95"/>
</g>
<!-- [root] provider[&quot;registry.terraform.io/hashicorp/google&quot;] (close) -->
<g id="node19" class="node">
<title>[root] provider[&quot;registry.terraform.io/hashicorp/google&quot;] (close)</title>
<ellipse fill="none" stroke="black" cx="713.5" cy="-378" rx="304.65" ry="18"/>
<text text-anchor="middle" x="713.5" y="-374.3" font-family="Times,serif" font-size="14.00">[root] provider[&quot;registry.terraform.io/hashicorp/google&quot;] (close)</text>
</g>
<!-- [root] provider[&quot;registry.terraform.io/hashicorp/google&quot;] (close)&#45;&gt;[root] google_cloudfunctions_function.function (expand) -->
<g id="edge23" class="edge">
<title>[root] provider[&quot;registry.terraform.io/hashicorp/google&quot;] (close)&#45;&gt;[root] google_cloudfunctions_function.function (expand)</title>
<path fill="none" stroke="black" d="M830.67,-361.38C910.53,-350.73 1016.59,-336.59 1100.54,-325.39"/>
<polygon fill="black" stroke="black" points="1101.21,-328.84 1110.66,-324.04 1100.29,-321.9 1101.21,-328.84"/>
</g>
<!-- [root] provider[&quot;registry.terraform.io/hashicorp/google&quot;] (close)&#45;&gt;[root] google_pubsub_subscription.subscription (expand) -->
<g id="edge24" class="edge">
<title>[root] provider[&quot;registry.terraform.io/hashicorp/google&quot;] (close)&#45;&gt;[root] google_pubsub_subscription.subscription (expand)</title>
<path fill="none" stroke="black" d="M761.66,-360.14C789.7,-350.33 825.25,-337.89 854.91,-327.51"/>
<polygon fill="black" stroke="black" points="856.44,-330.68 864.72,-324.07 854.12,-324.07 856.44,-330.68"/>
</g>
<!-- [root] provider[&quot;registry.terraform.io/hashicorp/google&quot;] (close)&#45;&gt;[root] google_storage_bucket.bucket_output (expand) -->
<g id="edge25" class="edge">
<title>[root] provider[&quot;registry.terraform.io/hashicorp/google&quot;] (close)&#45;&gt;[root] google_storage_bucket.bucket_output (expand)</title>
<path fill="none" stroke="black" d="M904.47,-363.94C1039.34,-354.31 1224.59,-340.25 1398.09,-324.02"/>
<polygon fill="black" stroke="black" points="1398.55,-327.49 1408.18,-323.07 1397.9,-320.52 1398.55,-327.49"/>
</g>
<!-- [root] provider[&quot;registry.terraform.io/hashicorp/google&quot;] (close)&#45;&gt;[root] google_storage_default_object_access_control.public_rule (expand) -->
<g id="edge26" class="edge">
<title>[root] provider[&quot;registry.terraform.io/hashicorp/google&quot;] (close)&#45;&gt;[root] google_storage_default_object_access_control.public_rule (expand)</title>
<path fill="none" stroke="black" d="M600.75,-361.25C524.79,-350.63 424.31,-336.59 344.6,-325.46"/>
<polygon fill="black" stroke="black" points="344.88,-321.96 334.49,-324.04 343.91,-328.89 344.88,-321.96"/>
</g>
<!-- [root] provider[&quot;registry.terraform.io/hashicorp/google&quot;] (close)&#45;&gt;[root] google_storage_notification.notification (expand) -->
<g id="edge27" class="edge">
<title>[root] provider[&quot;registry.terraform.io/hashicorp/google&quot;] (close)&#45;&gt;[root] google_storage_notification.notification (expand)</title>
<path fill="none" stroke="black" d="M683.97,-360.05C667.75,-350.75 647.45,-339.11 630.01,-329.1"/>
<polygon fill="black" stroke="black" points="631.6,-325.97 621.18,-324.03 628.12,-332.04 631.6,-325.97"/>
</g>
<!-- [root] root -->
<g id="node20" class="node">
<title>[root] root</title>
<ellipse fill="none" stroke="black" cx="1259.5" cy="-450" rx="58.49" ry="18"/>
<text text-anchor="middle" x="1259.5" y="-446.3" font-family="Times,serif" font-size="14.00">[root] root</text>
</g>
<!-- [root] root&#45;&gt;[root] meta.count&#45;boundary (EachMode fixup) -->
<g id="edge30" class="edge">
<title>[root] root&#45;&gt;[root] meta.count&#45;boundary (EachMode fixup)</title>
<path fill="none" stroke="black" d="M1259.5,-431.7C1259.5,-423.98 1259.5,-414.71 1259.5,-406.11"/>
<polygon fill="black" stroke="black" points="1263,-406.1 1259.5,-396.1 1256,-406.1 1263,-406.1"/>
</g>
<!-- [root] root&#45;&gt;[root] provider[&quot;registry.terraform.io/hashicorp/archive&quot;] (close) -->
<g id="edge31" class="edge">
<title>[root] root&#45;&gt;[root] provider[&quot;registry.terraform.io/hashicorp/archive&quot;] (close)</title>
<path fill="none" stroke="black" d="M1313.16,-442.63C1402.08,-432.08 1582.74,-410.65 1709.74,-395.58"/>
<polygon fill="black" stroke="black" points="1710.42,-399.03 1719.93,-394.37 1709.59,-392.07 1710.42,-399.03"/>
</g>
<!-- [root] root&#45;&gt;[root] provider[&quot;registry.terraform.io/hashicorp/google&quot;] (close) -->
<g id="edge32" class="edge">
<title>[root] root&#45;&gt;[root] provider[&quot;registry.terraform.io/hashicorp/google&quot;] (close)</title>
<path fill="none" stroke="black" d="M1206.65,-442.22C1123.76,-431.6 960.69,-410.69 844.78,-395.83"/>
<polygon fill="black" stroke="black" points="845.14,-392.35 834.77,-394.55 844.25,-399.29 845.14,-392.35"/>
</g>
</g>
</svg>
